# xmcd CD database file
#
# Track frame offsets:
#	150
#	21849
#	52115
#	72987
#	89790
#	113894
#	121983
#	141977
#	169544
#	197580
#	213696
#	231518
#	242342
#	265596
#
# Disc length: 4583 seconds
#
# Revision: 2
# Processed by: cddbd v1.5.2PL0 Copyright (c) Steve Scherf et al.
# Submitted via: CDex 1.95
#
DISCID=d011e50e
DTITLE=John Butler Trio - Sunrise Over The Sea
DYEAR=4
DGENRE=Blues Rock
TTITLE0=Treat Yo Mama
TTITLE1=Peaches And Cream
TTITLE2=Company Sin
TTITLE3=Betterman
TTITLE4=What Yuo Want
TTITLE5=Damnedto Hell
TTITLE6=Hello
TTITLE7=Bound To Ramble
TTITLE8=Seeing Angels
TTITLE9=There'll Come A Time
TTITLE10=Zebra
TTITLE11=Mist
TTITLE12=Oldman
TTITLE13=Sometimes
EXTD=YEAR: 4
EXTT0=
EXTT1=
EXTT2=
EXTT3=
EXTT4=
EXTT5=
EXTT6=
EXTT7=
EXTT8=
EXTT9=
EXTT10=
EXTT11=
EXTT12=
EXTT13=
PLAYORDER=
